<svg fill="none" height="48" viewBox="0 0 194 48" width="194" xmlns="http://www.w3.org/2000/svg" xmlns:xlink="http://www.w3.org/1999/xlink"><clipPath id="a"><path d="m0 0h194v48h-194z"/></clipPath><g clip-path="url(#a)"><path d="m0 17.3076h16.2243v-16.27537h14.3301v16.27537h163.3136v14.4165h-163.3136v16.2754h-14.3301v-16.2754h-16.2243z" fill="#d4e9f8"/><g fill="#244898"><path d="m30.5527 1.11562c1.0294-.165232 2.3471-.330464 4.0767-.330464 2.1001 0 3.6236.495704 4.612 1.363164.9059.78486 1.4412 1.98279 1.4412 3.42857 0 1.48709-.453 2.64372-1.2765 3.51119-1.1118 1.19792-2.9649 1.81762-5.0238 1.81762-.6177 0-1.2354-.0414-1.6883-.1653v6.6093h-2.1001v-16.23408zm2.1001 7.93116c.453.12392 1.0294.16522 1.7707.16522 2.553 0 4.1178-1.23924 4.1178-3.51119 0-2.18932-1.5236-3.22202-3.8708-3.22202-.9059 0-1.6471.08261-1.9765.16523v6.40276z"/><path d="m43.3204.0410156h2.1413v7.3528444h.0412c.3294-.61963.8647-1.15663 1.5236-1.5284.6177-.37178 1.4001-.61962 2.1825-.61962 1.5648 0 4.1178.99139 4.1178 5.03956v7.0224h-2.1413v-6.7332c0-1.9002-.7001-3.51121-2.7178-3.51121-1.4001 0-2.4707.9914-2.8825 2.14802-.1235.28916-.1647.61962-.1647 1.03269v7.1463h-2.1412v-17.3493844z"/><path d="m63.3302 17.3488-.1648-1.4871h-.0823c-.6589.9088-1.9354 1.7762-3.5825 1.7762-2.3885 0-3.5826-1.6936-3.5826-3.3872 0-2.8502 2.5118-4.41999 7.0827-4.37868v-.24785c0-.99139-.2471-2.72634-2.6766-2.72634-1.1119 0-2.2236.33047-3.0472.86747l-.4941-1.40447c.9882-.61963 2.3883-1.03271 3.8707-1.03271 3.5826 0 4.4885 2.47849 4.4885 4.83308v4.4199c0 1.0327.0412 2.0242.2059 2.8503h-2.0177zm-.2883-6.031c-2.3472-.0413-4.9826.3717-4.9826 2.6437 0 1.4045.906 2.0654 2.0177 2.0654 1.5237 0 2.5119-.9914 2.8414-1.9828.0823-.2065.1235-.4543.1235-.7022z"/><path d="m68.5608 9.21167c0-1.40448-.0411-2.60241-.0823-3.67641h1.8942l.0824 2.31324h.0824c.5353-1.5697 1.8117-2.60241 3.253-2.60241.2471 0 .4118.04132.6177.08262v2.02409c-.2059-.0413-.453-.08261-.7413-.08261-1.5235 0-2.5941 1.15663-2.8824 2.76761-.0412.2892-.0823.6197-.0823.9914v6.2788h-2.1001v-8.09633z"/><path d="m76.5922 8.75699c0-1.23925-.0412-2.23064-.0824-3.18073h1.8942l.0823 1.90018h.0824c.6589-1.11533 1.7708-2.18933 3.7061-2.18933 1.6059 0 2.8413.99139 3.3355 2.35456h.0411c.3707-.66093.8236-1.15663 1.3177-1.5284.7-.53701 1.4824-.82616 2.5943-.82616 1.5648 0 3.8707 1.0327 3.8707 5.12219v6.9398h-2.1001v-6.6919c0-2.27199-.8235-3.63515-2.553-3.63515-1.2354 0-2.1825.90878-2.5119 1.94148-.0824.28916-.1648.70224-.1648 1.07397v7.3116h-2.1001v-7.0637c0-1.85888-.8235-3.26335-2.4706-3.26335-1.3589 0-2.306 1.07401-2.6354 2.14802-.1235.33047-.1648.70223-.1648 1.03273v7.1463h-2.1412z"/><path d="m103.4 17.3488-.164-1.4871h-.083c-.659.9088-1.935 1.7762-3.5822 1.7762-2.3884 0-3.5825-1.6936-3.5825-3.3872 0-2.8502 2.5119-4.41999 7.0827-4.37868v-.24785c0-.99139-.247-2.72634-2.677-2.72634-1.1114 0-2.2233.33047-3.0469.86747l-.4941-1.40447c.9883-.61963 2.3884-1.03271 3.871-1.03271 3.582 0 4.488 2.47849 4.488 4.83308v4.4199c0 1.0327.041 2.0242.206 2.8503h-2.018zm-.329-6.031c-2.347-.0413-4.9826.3717-4.9826 2.6437 0 1.4045.9059 2.0654 2.0176 2.0654 1.524 0 2.512-.9914 2.841-1.9828.083-.2065.124-.4543.124-.7022z"/><path d="m130.946 11.8141c.041 2.8915 1.894 4.0895 4.035 4.0895 1.524 0 2.47-.2892 3.253-.6196l.371 1.5284c-.741.3304-2.06.7436-3.912.7436-3.623 0-5.806-2.396-5.806-5.9484 0-3.55256 2.1-6.36151 5.518-6.36151 3.829 0 4.859 3.38727 4.859 5.57661 0 .4544-.041.7849-.082.9914zm6.3-1.5284c.041-1.36318-.577-3.5112-2.965-3.5112-2.183 0-3.129 1.98278-3.294 3.5112z"/><path d="m151.825 14.1272c0 1.2392.04 2.3133.082 3.2221h-1.894l-.124-1.9415h-.042c-.575.9501-1.811 2.1894-3.911 2.1894-1.853 0-4.077-1.0328-4.077-5.1636v-6.89844h2.142v6.52664c0 2.2307.7 3.759 2.635 3.759 1.441 0 2.429-.9913 2.842-1.9414.123-.3305.205-.7023.205-1.1153v-7.22894h2.142z"/><path d="m157.957 2.10645v3.38726h3.046v1.65232h-3.046v6.36147c0 1.4458.411 2.3133 1.605 2.3133.577 0 .988-.0827 1.236-.1653l.082 1.611c-.412.1653-1.071.2892-1.894.2892-.989 0-1.811-.3304-2.306-.9088-.617-.6196-.824-1.6936-.824-3.0568v-6.44407h-1.811v-1.65232h1.811v-2.80895z"/><path d="m165.824 2.18904c.042.74355-.493 1.32187-1.359 1.32187-.74 0-1.276-.57832-1.276-1.32187 0-.74354.577-1.321852 1.318-1.321852.782 0 1.317.578312 1.317 1.321852zm-2.387 15.16006v-11.8141h2.14v11.8141z"/><path d="m177.516 16.8947c-.576.2891-1.812.7023-3.376.7023-3.541 0-5.847-2.4373-5.847-6.0311 0-3.63508 2.471-6.27879 6.341-6.27879 1.277 0 2.389.33046 2.965.61962l-.494 1.65233c-.495-.28917-1.317-.57832-2.471-.57832-2.718 0-4.159 1.98279-4.159 4.46126 0 2.7264 1.77 4.42 4.077 4.42 1.236 0 2.018-.3305 2.635-.5783z"/><path d="m186.536 17.3497-.166-1.487h-.082c-.658.9087-1.935 1.7762-3.582 1.7762-2.389 0-3.583-1.6936-3.583-3.3873 0-2.8502 2.511-4.41992 7.083-4.37861v-.24785c0-.99139-.289-2.72633-2.676-2.72633-1.113 0-2.225.33046-3.048.86747l-.494-1.40447c.988-.61963 2.388-1.03271 3.871-1.03271 3.582 0 4.488 2.47849 4.488 4.833v4.42c0 1.0327.041 2.0241.206 2.8503h-2.017zm-.33-6.0309c-2.347-.0414-4.983.3717-4.983 2.6437 0 1.4044.906 2.0654 2.018 2.0654 1.523 0 2.512-.9914 2.842-1.9828.082-.2065.123-.4544.123-.7022z"/><path d="m191.764 0h2.141v17.3494h-2.141z"/><path d="m107.434 17.6803c0-8.75733 5.929-14.70569 14.577-14.70569 3.5 0 5.683.74355 6.629 1.23924l-.864 2.93288c-1.771-.78486-3.706-1.19793-5.642-1.15663-6.547 0-10.912 4.2134-10.912 11.5662"/></g><path d="m111.265 17.4316c0 6.8571 3.953 11.2772 10.748 11.2772 2.182 0 4.447-.4544 5.888-1.1567l.742 2.8502c-1.319.661-3.954 1.3219-7.371 1.3219-7.866 0-13.795-5.1222-13.795-14.2926" fill="#fff"/><path d="m138.403 26.3134c0 3.4699-2.389 4.957-4.654 4.957-2.511 0-4.487-1.8588-4.487-4.833 0-3.1394 2.058-4.9569 4.611-4.9569 2.718.0412 4.53 1.9827 4.53 4.8329zm-7.412.124c0 2.0654 1.194 3.5938 2.841 3.5938 1.606 0 2.841-1.5284 2.841-3.6351 0-1.5697-.782-3.5938-2.8-3.5938s-2.882 1.8589-2.882 3.6351z" fill="#fff"/><path d="m140.712 29.3703c.495.3304 1.401.6609 2.224.6609 1.235 0 1.812-.6196 1.812-1.4045 0-.8261-.494-1.2392-1.729-1.7349-1.689-.6197-2.471-1.5285-2.471-2.6438 0-1.5284 1.235-2.7675 3.212-2.7675.947 0 1.77.289 2.305.5782l-.411 1.2393c-.371-.2478-1.03-.537-1.894-.537-.988 0-1.565.5782-1.565 1.2805 0 .7849.577 1.1153 1.77 1.5697 1.607.6197 2.471 1.4458 2.471 2.809 0 1.6523-1.276 2.809-3.5 2.809-1.029 0-1.976-.2479-2.635-.6197z" fill="#fff"/><path d="m148.903 24.2481c0-.95 0-1.7762-.083-2.5197h1.483l.082 1.5284h.042c.535-.9088 1.399-1.7349 2.924-1.7349 1.275 0 2.223.7848 2.635 1.8587h.041c.288-.5369.659-.9087 1.03-1.2391.575-.4131 1.194-.661 2.058-.661 1.236 0 3.088.8262 3.088 4.0482v5.5352h-1.647v-5.2873c0-1.8176-.659-2.8917-2.018-2.8917-.946 0-1.729.7023-2.017 1.5285-.082.2479-.124.5369-.124.8675v5.783h-1.647v-5.5765c0-1.4871-.659-2.5611-1.935-2.5611-1.071 0-1.853.8674-2.101 1.6936-.082.2479-.123.537-.123.8262v5.6592h-1.647v-6.8572z" fill="#fff"/><path d="m166.321 26.726c.042 2.3133 1.523 3.2634 3.212 3.2634 1.235 0 1.936-.2065 2.594-.4957l.288 1.2393c-.617.2891-1.605.5782-3.088.5782-2.882 0-4.612-1.9002-4.612-4.7091 0-2.809 1.648-5.0396 4.365-5.0396 3.047 0 3.871 2.685 3.871 4.4199 0 .3306-.041.6197-.041.7849h-6.589zm4.982-1.2392c0-1.0741-.453-2.7676-2.347-2.7676-1.729 0-2.471 1.5697-2.593 2.7676z" fill="#fff"/><path d="m177.475 19.043v2.685h2.431v1.2805h-2.431v5.0396c0 1.1567.331 1.8176 1.277 1.8176.453 0 .783-.0413.988-.124l.082 1.2806c-.329.1239-.864.2479-1.523.2479-.782 0-1.441-.2479-1.852-.7023-.495-.4957-.659-1.3218-.659-2.4371v-5.1223h-1.442v-1.2805h1.442v-2.2306z" fill="#fff"/><path d="m184.108 19.0838c0 .5783-.412 1.0326-1.07 1.0326-.619 0-1.03-.4543-1.03-1.0326 0-.6196.453-1.074 1.07-1.074.618 0 1.03.4956 1.03 1.074zm-1.894 12.0207v-9.377h1.688v9.377z" fill="#fff"/><path d="m193.747 30.7331c-.453.2479-1.441.5371-2.676.5371-2.8 0-4.653-1.9002-4.653-4.7918 0-2.8915 1.976-4.9569 5.024-4.9569.988 0 1.894.2478 2.347.4957l-.371 1.3218c-.411-.2478-1.03-.4544-1.976-.4544-2.142 0-3.295 1.5697-3.295 3.5525 0 2.1481 1.401 3.5112 3.253 3.5112.948 0 1.607-.2478 2.1-.4543z" fill="#fff"/></g></svg>